<?xml version="1.0" encoding="utf-8"?>
<!-- Generator: Adobe Illustrator 16.0.0, SVG Export Plug-In . SVG Version: 6.00 Build 0)  -->
<!DOCTYPE svg PUBLIC "-//W3C//DTD SVG 1.1//EN" "http://www.w3.org/Graphics/SVG/1.1/DTD/svg11.dtd">
<svg version="1.1" id="Layer_1" xmlns="http://www.w3.org/2000/svg" xmlns:xlink="http://www.w3.org/1999/xlink" x="0px" y="0px"
	 width="792px" height="612px" viewBox="0 0 792 612" enable-background="new 0 0 792 612" xml:space="preserve">
<g>
	<polygon fill-rule="evenodd" clip-rule="evenodd" fill="#010101" points="204.622,377.401 133.314,377.401 133.314,306.126 
		202.726,307.99 	"/>
	<polygon fill-rule="evenodd" clip-rule="evenodd" fill="#094E8A" points="276.718,306.126 276.718,377.401 205.411,377.401 
		207.275,307.99 	"/>
	<polygon fill-rule="evenodd" clip-rule="evenodd" fill="#010101" points="205.411,234.03 276.718,234.03 276.718,305.305 
		207.275,303.441 	"/>
	<polygon fill-rule="evenodd" clip-rule="evenodd" fill="#094E8A" points="133.314,234.03 204.622,234.03 202.726,303.441 
		133.314,305.305 	"/>
	<polygon fill="#FFFFFF" points="159.379,249.258 164.118,249.258 164.118,286.917 187.782,286.917 187.782,291.309 
		159.379,291.309 	"/>
	<polygon fill="#FFFFFF" points="238.332,253.649 224.209,253.649 224.209,249.258 257.193,249.258 257.193,253.649 
		243.071,253.649 243.071,291.309 238.332,291.309 	"/>
	<path fill="#FFFFFF" d="M170.911,363.184c-3.065,0-5.845-0.567-8.404-1.674c-2.59-1.137-4.802-2.653-6.666-4.612
		c-1.896-1.927-3.381-4.233-4.423-6.856c-1.074-2.653-1.612-5.465-1.612-8.467v-0.126c0-2.97,0.538-5.782,1.612-8.404
		c1.042-2.653,2.527-4.96,4.423-6.95c1.864-1.991,4.107-3.539,6.697-4.676c2.623-1.138,5.466-1.706,8.531-1.706
		c1.927,0,3.665,0.158,5.213,0.474s2.97,0.759,4.297,1.358c1.327,0.569,2.527,1.264,3.665,2.085c1.106,0.822,2.18,1.737,3.223,2.749
		l-3.223,3.475c-1.801-1.674-3.728-3.063-5.813-4.138c-2.054-1.074-4.518-1.644-7.424-1.644c-2.307,0-4.455,0.443-6.445,1.327
		c-1.991,0.885-3.696,2.116-5.15,3.665c-1.484,1.58-2.622,3.411-3.444,5.497c-0.821,2.117-1.232,4.36-1.232,6.762v0.126
		c0,2.433,0.411,4.707,1.232,6.824c0.822,2.086,1.959,3.917,3.444,5.465c1.454,1.581,3.159,2.813,5.15,3.697
		c1.99,0.916,4.139,1.358,6.445,1.358c2.907,0,5.371-0.537,7.456-1.58c2.085-1.073,4.139-2.559,6.129-4.485l3.128,3.063
		c-1.074,1.138-2.212,2.149-3.381,3.034c-1.201,0.916-2.464,1.674-3.822,2.306c-1.358,0.663-2.844,1.138-4.392,1.517
		C174.576,362.995,172.838,363.184,170.911,363.184L170.911,363.184z"/>
	<path fill="#FFFFFF" d="M243.418,343.376c1.738,0,3.318-0.222,4.739-0.664c1.422-0.442,2.654-1.106,3.665-1.896
		c1.042-0.821,1.833-1.801,2.37-2.938c0.537-1.105,0.79-2.401,0.79-3.791v-0.126c0-3.002-1.011-5.277-3.096-6.824
		c-2.054-1.548-4.802-2.339-8.214-2.339h-10.647v18.578H243.418z M228.253,320.406h15.733c2.37,0,4.518,0.315,6.477,0.948
		c1.928,0.633,3.602,1.484,4.992,2.653c1.358,1.138,2.433,2.527,3.159,4.171c0.758,1.643,1.106,3.507,1.106,5.562v0.126
		c0,2.274-0.411,4.296-1.295,5.971c-0.885,1.706-2.085,3.159-3.57,4.296c-1.517,1.169-3.254,2.055-5.276,2.623
		c-1.99,0.568-4.107,0.885-6.351,0.885h-10.205v14.817h-4.771V320.406z"/>
	<path fill="#010101" d="M315.136,322.555h40.377v-9.193h-30.267v-48.402h-10.11V322.555z M366.065,322.555h43.094v-9.036h-32.984
		v-15.48h28.877v-9.036h-28.877v-14.975h32.573v-9.068h-42.683V322.555z M448.493,323.534c10.205,0,18.324-4.107,24.011-8.941v-24.2
		h-24.516v8.814h14.722v10.773c-3.538,2.623-8.467,4.36-13.901,4.36c-11.753,0-19.588-8.72-19.588-20.568v-0.158
		c0-11.026,8.088-20.346,18.704-20.346c7.298,0,11.657,2.401,16.112,6.192l6.414-7.646c-5.908-5.023-12.102-7.835-22.116-7.835
		c-17.377,0-29.729,13.648-29.729,29.792v0.159C418.605,310.707,430.453,323.534,448.493,323.534L448.493,323.534z M480.75,322.555
		h10.362l5.908-13.901h27.233l5.846,13.901h10.678l-25.337-58.005h-9.353L480.75,322.555z M500.717,299.681l9.89-23.032
		l9.951,23.032H500.717z M573.856,323.534c10.773,0,17.377-3.948,23.38-10.173l-6.51-6.603c-4.928,4.612-9.445,7.487-16.521,7.487
		c-11.027,0-19.021-9.194-19.021-20.473v-0.158c0-11.279,7.993-20.346,19.021-20.346c6.57,0,11.499,2.907,16.111,7.172l6.509-7.488
		c-5.529-5.276-11.942-8.973-22.558-8.973c-17.439,0-29.699,13.428-29.699,29.792v0.159
		C544.568,310.455,557.08,323.534,573.856,323.534L573.856,323.534z M623.965,322.555h10.204v-22.937l22.874-34.659h-11.595
		l-16.303,25.528l-16.113-25.528H601.09l22.875,34.912V322.555z"/>
	<path fill="#010101" d="M319.717,338.479h-5.371v-1.644h12.542v1.644h-5.371v14.313h-1.801V338.479z M336.999,344.955
		c0.6,0,1.137-0.063,1.643-0.221c0.506-0.158,0.948-0.38,1.295-0.633c0.379-0.284,0.664-0.631,0.853-1.043
		c0.221-0.41,0.316-0.852,0.316-1.39v-0.031c0-0.979-0.348-1.769-1.074-2.307c-0.727-0.568-1.738-0.853-3.033-0.853h-4.929v6.477
		H336.999z M330.27,336.835h6.855c1.011,0,1.896,0.127,2.654,0.412c0.758,0.284,1.39,0.662,1.896,1.169
		c0.411,0.41,0.695,0.852,0.916,1.39c0.221,0.536,0.316,1.138,0.316,1.769v0.031c0,0.664-0.095,1.264-0.316,1.802
		c-0.221,0.536-0.505,0.979-0.916,1.358c-0.379,0.41-0.821,0.727-1.358,0.979c-0.537,0.221-1.106,0.41-1.738,0.537l4.897,6.509
		h-2.212l-4.613-6.193h-0.063h-4.518v6.193h-1.801V336.835z M353.143,353.043c-0.979,0-1.896-0.157-2.685-0.442
		c-0.822-0.316-1.517-0.758-2.117-1.327c-0.569-0.6-1.043-1.327-1.358-2.179c-0.316-0.854-0.474-1.865-0.474-3.002v-9.258h1.801
		v9.163c0,1.736,0.442,3.064,1.295,3.98c0.854,0.947,2.054,1.39,3.602,1.39c1.454,0,2.623-0.442,3.507-1.327
		c0.854-0.884,1.296-2.18,1.296-3.948v-9.258h1.801v9.131c0,1.169-0.158,2.212-0.474,3.097c-0.316,0.853-0.79,1.611-1.358,2.211
		c-0.6,0.569-1.295,1.011-2.117,1.327C355.071,352.886,354.154,353.043,353.143,353.043L353.143,353.043z M369.572,353.012
		c-1.295,0-2.433-0.189-3.507-0.633c-1.043-0.41-2.053-1.042-3.033-1.926l1.138-1.327c0.821,0.789,1.674,1.327,2.527,1.705
		c0.853,0.379,1.833,0.569,2.938,0.569c1.074,0,1.959-0.253,2.591-0.759s0.979-1.169,0.979-1.959v-0.031
		c0-0.379-0.063-0.694-0.189-1.011c-0.126-0.284-0.347-0.568-0.632-0.79c-0.316-0.253-0.727-0.474-1.295-0.663
		c-0.537-0.222-1.201-0.411-2.054-0.568c-0.916-0.223-1.706-0.443-2.401-0.695c-0.664-0.253-1.232-0.569-1.675-0.948
		c-0.442-0.348-0.758-0.789-0.979-1.264c-0.222-0.474-0.316-1.074-0.316-1.706v-0.063c0-0.602,0.126-1.201,0.379-1.738
		c0.252-0.505,0.632-0.979,1.106-1.358s1.011-0.695,1.674-0.917c0.632-0.221,1.327-0.347,2.085-0.347
		c1.169,0,2.18,0.189,3.064,0.505c0.885,0.316,1.738,0.821,2.56,1.485l-1.074,1.391c-0.727-0.633-1.485-1.075-2.243-1.327
		c-0.758-0.285-1.548-0.411-2.338-0.411c-1.074,0-1.896,0.253-2.496,0.727c-0.6,0.505-0.917,1.106-0.917,1.832v0.064
		c0,0.379,0.063,0.694,0.19,1.01c0.126,0.285,0.348,0.569,0.664,0.821c0.316,0.253,0.758,0.475,1.327,0.664
		c0.537,0.222,1.264,0.411,2.149,0.6c1.769,0.38,3.096,0.948,3.949,1.644c0.822,0.695,1.264,1.643,1.264,2.875v0.031
		c0,0.696-0.158,1.327-0.411,1.865c-0.285,0.567-0.663,1.042-1.137,1.421c-0.474,0.41-1.043,0.694-1.706,0.917
		C371.088,352.917,370.362,353.012,369.572,353.012L369.572,353.012z M382.873,338.479h-5.339v-1.644h12.511v1.644h-5.371v14.313
		h-1.801V338.479z M404.198,351.495c0.759,0,1.454-0.19,2.117-0.569s1.295-0.885,1.864-1.516l-4.266-4.392
		c-1.074,0.378-1.832,0.885-2.338,1.484c-0.474,0.601-0.727,1.231-0.727,1.928v0.063c0,0.411,0.095,0.822,0.253,1.169
		c0.158,0.379,0.379,0.696,0.663,0.948c0.316,0.284,0.664,0.505,1.074,0.663C403.251,351.4,403.693,351.495,404.198,351.495
		L404.198,351.495z M404.641,343.313c1.012-0.349,1.801-0.759,2.307-1.264c0.505-0.475,0.789-1.074,0.789-1.77v-0.032
		c0-0.632-0.221-1.169-0.663-1.579c-0.41-0.411-0.947-0.632-1.61-0.632c-0.728,0-1.328,0.221-1.77,0.664
		c-0.411,0.441-0.632,0.979-0.632,1.642v0.032c0,0.221,0,0.475,0.063,0.695c0.063,0.221,0.157,0.441,0.252,0.663
		c0.127,0.221,0.284,0.475,0.506,0.727C404.072,342.712,404.325,342.996,404.641,343.313L404.641,343.313z M409.285,350.516
		c-0.727,0.821-1.517,1.422-2.369,1.863c-0.854,0.412-1.802,0.633-2.844,0.633c-0.727,0-1.391-0.095-1.99-0.315
		c-0.632-0.223-1.138-0.507-1.612-0.917c-0.441-0.379-0.789-0.854-1.042-1.421c-0.253-0.538-0.379-1.138-0.379-1.802v-0.063
		c0-1.042,0.347-1.959,1.011-2.717s1.611-1.39,2.843-1.896c-0.536-0.632-0.946-1.201-1.2-1.737c-0.252-0.538-0.379-1.138-0.379-1.77
		v-0.032c0-0.536,0.095-1.011,0.284-1.484c0.221-0.441,0.506-0.854,0.854-1.2c0.379-0.348,0.821-0.601,1.327-0.822
		c0.537-0.189,1.105-0.284,1.738-0.284c0.567,0,1.073,0.095,1.547,0.284s0.886,0.443,1.232,0.79c0.348,0.316,0.6,0.695,0.822,1.138
		c0.189,0.41,0.284,0.885,0.284,1.39v0.063c0,1.012-0.348,1.833-1.012,2.527c-0.664,0.664-1.579,1.2-2.748,1.611l3.633,3.729
		c0.348-0.537,0.694-1.074,1.012-1.675c0.315-0.6,0.631-1.232,0.915-1.896l1.485,0.694c-0.348,0.759-0.727,1.453-1.074,2.117
		c-0.38,0.695-0.79,1.296-1.231,1.896l2.779,2.843l-1.358,1.043L409.285,350.516z M430.295,353.074c-1.137,0-2.211-0.221-3.19-0.663
		c-0.979-0.411-1.802-0.979-2.527-1.737c-0.728-0.728-1.264-1.611-1.676-2.591c-0.41-1.011-0.6-2.085-0.6-3.223v-0.063
		c0-1.105,0.189-2.18,0.6-3.191c0.412-1.011,0.948-1.863,1.676-2.622c0.726-0.758,1.548-1.358,2.559-1.77
		c0.979-0.441,2.054-0.663,3.223-0.663c0.727,0,1.39,0.063,1.99,0.189c0.568,0.127,1.105,0.284,1.611,0.507
		c0.505,0.221,0.979,0.473,1.39,0.789c0.442,0.315,0.854,0.664,1.232,1.042l-1.232,1.327c-0.663-0.631-1.421-1.169-2.18-1.579
		c-0.79-0.41-1.737-0.601-2.812-0.601c-0.885,0-1.706,0.157-2.464,0.506c-0.759,0.315-1.423,0.789-1.959,1.39
		c-0.569,0.568-0.98,1.264-1.296,2.086c-0.316,0.789-0.475,1.643-0.475,2.559v0.031c0,0.948,0.158,1.801,0.475,2.591
		c0.315,0.821,0.727,1.517,1.296,2.085c0.536,0.601,1.2,1.074,1.959,1.422c0.758,0.348,1.579,0.506,2.464,0.506
		c1.074,0,2.021-0.19,2.812-0.601s1.579-0.979,2.338-1.705l1.169,1.169c-0.41,0.41-0.821,0.789-1.295,1.137
		c-0.442,0.348-0.917,0.632-1.422,0.884c-0.537,0.253-1.074,0.443-1.675,0.569C431.686,352.98,431.021,353.074,430.295,353.074
		L430.295,353.074z M450.198,346.945l-3.633-8.15l-3.665,8.15H450.198z M445.744,336.709h1.675l7.266,16.082h-1.926l-1.865-4.234
		h-8.688l-1.896,4.234h-1.833L445.744,336.709z M463.595,345.523c0.663,0,1.264-0.063,1.801-0.253
		c0.537-0.157,1.011-0.41,1.39-0.694c0.411-0.316,0.695-0.695,0.916-1.138c0.189-0.411,0.285-0.885,0.285-1.421v-0.064
		c0-1.137-0.38-1.989-1.169-2.591c-0.79-0.567-1.833-0.884-3.128-0.884h-4.045v7.045H463.595z M457.845,336.835h5.971
		c0.917,0,1.706,0.095,2.465,0.348c0.727,0.222,1.358,0.569,1.896,1.011c0.506,0.412,0.916,0.948,1.201,1.581
		c0.284,0.631,0.41,1.326,0.41,2.115v0.032c0,0.885-0.158,1.644-0.505,2.274c-0.317,0.664-0.759,1.2-1.359,1.644
		c-0.568,0.442-1.232,0.758-1.99,0.979c-0.759,0.221-1.549,0.348-2.4,0.348h-3.888v5.624h-1.8V336.835z M473.23,336.835h1.801
		v15.956h-1.801V336.835z M483.941,338.479h-5.372v-1.644h12.543v1.644h-5.37v14.313h-1.801V338.479z M504.856,346.945l-3.634-8.15
		l-3.633,8.15H504.856z M500.401,336.709h1.674l7.299,16.082h-1.959l-1.864-4.234h-8.688l-1.896,4.234h-1.832L500.401,336.709z
		 M512.501,336.835h1.802v14.28h9.004v1.676h-10.806V336.835z M539.23,345.523c0.662,0,1.264-0.063,1.8-0.253
		c0.538-0.157,1.011-0.41,1.391-0.694c0.379-0.316,0.695-0.695,0.884-1.138c0.222-0.411,0.317-0.885,0.317-1.421v-0.064
		c0-1.137-0.411-1.989-1.169-2.591c-0.79-0.567-1.833-0.884-3.128-0.884h-4.045v7.045H539.23z M533.479,336.835h5.972
		c0.885,0,1.706,0.095,2.433,0.348c0.759,0.222,1.39,0.569,1.896,1.011c0.537,0.412,0.948,0.948,1.232,1.581
		c0.253,0.631,0.41,1.326,0.41,2.115v0.032c0,0.885-0.157,1.644-0.505,2.274c-0.349,0.664-0.79,1.2-1.358,1.644
		c-0.569,0.442-1.233,0.758-1.99,0.979c-0.759,0.221-1.58,0.348-2.433,0.348h-3.855v5.624h-1.801V336.835z M559.071,346.945
		l-3.634-8.15l-3.665,8.15H559.071z M554.616,336.709h1.674l7.267,16.082h-1.927l-1.864-4.234h-8.688l-1.896,4.234h-1.832
		L554.616,336.709z M573.446,344.955c0.6,0,1.137-0.063,1.643-0.221c0.506-0.158,0.916-0.38,1.295-0.633
		c0.38-0.284,0.664-0.631,0.854-1.043c0.221-0.41,0.315-0.852,0.315-1.39v-0.031c0-0.979-0.348-1.769-1.074-2.307
		c-0.727-0.568-1.737-0.853-3.032-0.853h-4.929v6.477H573.446z M566.716,336.835h6.856c1.011,0,1.864,0.127,2.653,0.412
		c0.759,0.284,1.391,0.662,1.896,1.169c0.41,0.41,0.694,0.852,0.916,1.39c0.222,0.536,0.316,1.138,0.316,1.769v0.031
		c0,0.664-0.095,1.264-0.316,1.802c-0.222,0.536-0.506,0.979-0.916,1.358c-0.38,0.41-0.822,0.727-1.358,0.979
		c-0.538,0.221-1.105,0.41-1.738,0.537l4.896,6.509h-2.211l-4.644-6.193h-0.031h-4.519v6.193h-1.802V336.835z M587.442,338.479
		h-5.372v-1.644h12.512v1.644h-5.34v14.313h-1.8V338.479z M597.994,336.835h1.675l10.047,12.796v-12.796h1.769v15.956h-1.421
		l-10.332-13.08v13.08h-1.737V336.835z M616.003,336.835h11.531v1.611h-9.731v5.497h8.721v1.612h-8.721v5.623h9.858v1.612h-11.658
		V336.835z M637.991,344.955c0.601,0,1.139-0.063,1.644-0.221c0.505-0.158,0.948-0.38,1.327-0.633
		c0.347-0.284,0.632-0.631,0.853-1.043c0.189-0.41,0.284-0.852,0.284-1.39v-0.031c0-0.979-0.347-1.769-1.074-2.307
		c-0.695-0.568-1.705-0.853-3.001-0.853h-4.929v6.477H637.991z M631.294,336.835h6.856c0.979,0,1.863,0.127,2.622,0.412
		c0.79,0.284,1.421,0.662,1.927,1.169c0.379,0.41,0.695,0.852,0.885,1.39c0.222,0.536,0.348,1.138,0.348,1.769v0.031
		c0,0.664-0.126,1.264-0.348,1.802c-0.189,0.536-0.506,0.979-0.885,1.358c-0.379,0.41-0.853,0.727-1.391,0.979
		c-0.536,0.221-1.105,0.41-1.737,0.537l4.929,6.509h-2.212l-4.645-6.193h-0.031h-4.518v6.193h-1.801V336.835z M653.251,353.012
		c-1.264,0-2.433-0.189-3.475-0.633c-1.074-0.41-2.085-1.042-3.033-1.926l1.105-1.327c0.854,0.789,1.706,1.327,2.56,1.705
		c0.821,0.379,1.801,0.569,2.938,0.569c1.073,0,1.927-0.253,2.591-0.759c0.631-0.506,0.947-1.169,0.947-1.959v-0.031
		c0-0.379-0.063-0.694-0.19-1.011c-0.095-0.284-0.315-0.568-0.631-0.79c-0.315-0.253-0.728-0.474-1.264-0.663
		c-0.538-0.222-1.232-0.411-2.085-0.568c-0.886-0.223-1.706-0.443-2.37-0.695c-0.695-0.253-1.232-0.569-1.674-0.948
		c-0.443-0.348-0.79-0.789-0.979-1.264c-0.221-0.474-0.315-1.074-0.315-1.706v-0.063c0-0.602,0.126-1.201,0.378-1.738
		c0.253-0.505,0.632-0.979,1.075-1.358c0.473-0.379,1.042-0.695,1.674-0.917c0.632-0.221,1.326-0.347,2.117-0.347
		c1.169,0,2.18,0.189,3.064,0.505c0.853,0.316,1.706,0.821,2.527,1.485l-1.043,1.391c-0.758-0.633-1.484-1.075-2.243-1.327
		c-0.759-0.285-1.548-0.411-2.369-0.411c-1.043,0-1.864,0.253-2.496,0.727c-0.601,0.505-0.885,1.106-0.885,1.832v0.064
		c0,0.379,0.031,0.694,0.158,1.01c0.126,0.285,0.347,0.569,0.664,0.821c0.315,0.253,0.757,0.475,1.326,0.664
		c0.568,0.222,1.296,0.411,2.181,0.6c1.769,0.38,3.063,0.948,3.917,1.644s1.264,1.643,1.264,2.875v0.031
		c0,0.696-0.126,1.327-0.41,1.865c-0.253,0.567-0.633,1.042-1.106,1.421c-0.475,0.41-1.042,0.694-1.706,0.917
		C654.8,352.917,654.041,353.012,653.251,353.012L653.251,353.012z"/>
	<rect x="293.21" y="233.145" fill-rule="evenodd" clip-rule="evenodd" fill="#010101" width="1.99" height="145.71"/>
</g>
</svg>
